#!OML:ASF H:\Terrain\Patient Classification 1\Takeo\Monday\TakeoMonday.ASF
:FULLY-SPECIFIED
:DEGREES
148
root 9.75406 17.0654 -4.84024 -4.52328 -8.00063 -2.43066
lowerback 4.79054 1.3019 3.28949
upperback 2.44079 1.87246 0.918006
thorax -0.099947 0.95752 -0.988927
lowerneck -8.05781 6.60411 3.27519
upperneck 0.0664918 8.57329 -3.30335
head 1.69383 4.21113 -1.2468
rclavicle -2.09842e-014 9.93923e-016
rhumerus -13.5769 14.4825 -84.2204
rradius 53.6526
rwrist -16.207
rhand -24.6317 18.7781
rfingers 7.12502
rthumb 1.86726 -11.1935
lclavicle -2.09842e-014 9.93923e-016
lhumerus -50.8235 29.729 65.7862
lradius 15.198
lwrist 3.62169
lhand -19.496 21.8759
lfingers 7.12502
lthumb 6.82639 51.7459
rfemur 22.1911 6.08249 27.0267
rtibia 21.7212
rfoot -7.54005 -0.373003
rtoes -23.0382
lfemur -25.1033 -0.184297 -19.8325
ltibia 33.2971
lfoot -4.65027 13.3917
ltoes -6.61233
149
root 9.75741 17.0723 -4.64168 -4.50249 -7.6941 -2.18263
lowerback 4.53684 1.26685 2.90719
upperback 2.41389 1.80113 0.870522
thorax -0.000300873 0.920149 -0.814717
lowerneck -8.50796 6.65811 3.17809
upperneck 0.616867 8.64997 -3.2023
head 1.94669 4.24522 -1.17165
rclavicle -2.93922e-014 0
rhumerus -14.4279 14.4073 -84.4125
rradius 53.6351
rwrist -16.8268
rhand -25.0171 18.215
rfingers 7.12502
rthumb 1.49504 -11.7595
lclavicle -2.93922e-014 0
lhumerus -50.1218 29.9137 66.02
lradius 14.9199
lwrist 3.26228
lhand -19.589 21.4962
lfingers 7.12502
lthumb 6.73658 51.3691
rfemur 21.1139 5.84504 26.6013
rtibia 24.5482
rfoot -6.08474 -0.26791
rtoes -24.0394
lfemur -24.7991 -0.151918 -20.2965
ltibia 33.9165
lfoot -4.91701 13.3678
ltoes -7.27338
150
root 9.77006 17.0822 -4.442 -4.61349 -7.28737 -1.52744
lowerback 4.40541 1.29129 2.25837
upperback 2.32108 1.80622 0.6901
thorax -0.0375996 0.917312 -0.635391
lowerneck -8.64236 6.59532 2.97033
upperneck 1.07613 8.58437 -2.95292
head 2.0961 4.21524 -1.04958
rclavicle -1.59804e-014 5.96354e-016
rhumerus -15.7674 14.1027 -84.5424
rradius 53.9009
rwrist -17.2496
rhand -25.0618 18.3276
rfingers 7.12502
rthumb 1.45193 -11.6472
lclavicle -1.59804e-014 5.96354e-016
lhumerus -49.52 29.7145 66.4574
lradius 14.8947
lwrist 3.10617
lhand -19.3066 21.2669
lfingers 7.12502
lthumb 7.00915 51.1308
rfemur 20.075 5.37255 25.5602
rtibia 27.3814
rfoot -4.27589 0.0129007
rtoes -24.5479
lfemur -24.2685 -0.230332 -21.2392
ltibia 34.436
lfoot -5.4799 13.1857
ltoes -5.85782
151
root 9.78373 17.0928 -4.24664 -4.79164 -7.05289 -0.98022
lowerback 4.52383 1.32667 1.77494
upperback 2.13122 1.8398 0.457269
thorax -0.305743 0.928317 -0.6114
lowerneck -8.5251 6.5758 2.83784
upperneck 1.54505 8.56576 -2.49802
head 2.1982 4.21751 -0.880662
rclavicle -1.2087e-014 -5.66536e-015
rhumerus -16.8641 13.3933 -85.023
rradius 53.3887
rwrist -17.1442
rhand -25.2843 19.2231
rfingers 7.12502
rthumb 1.23699 -10.7531
lclavicle -1.2087e-014 -5.66536e-015
lhumerus -48.8201 28.9785 67.143
lradius 15.0556
lwrist 3.62987
lhand -19.0523 21.4869
lfingers 7.12502
lthumb 7.25462 51.3425
rfemur 19.0158 5.1101 24.6496
rtibia 30.2263
rfoot -1.9529 0.236088
rtoes -24.8182
lfemur -23.6262 -0.301356 -21.9994
ltibia 34.7774
lfoot -6.27767 12.7019
ltoes -3.61358
152
root 9.79773 17.1117 -4.05672 -4.8786 -6.9369 -0.847351
lowerback 4.65825 1.3107 1.75443
upperback 1.94372 1.82206 0.292126
thorax -0.568757 0.916794 -0.774961
lowerneck -8.21941 6.63638 3.00688
upperneck 1.81258 8.63159 -2.243
head 2.22842 4.261 -0.830522
rclavicle 2.97478e-014 -7.00716e-015
rhumerus -17.4932 12.6423 -85.6371
rradius 52.2624
rwrist -16.922
rhand -25.2857 19.5642
rfingers 7.12502
rthumb 1.23559 -10.412
lclavicle 2.97478e-014 -7.00716e-015
lhumerus -48.049 28.2209 67.8146
lradius 15.2802
lwrist 4.49008
lhand -19.1188 21.2202
lfingers 7.12502
lthumb 7.19049 51.078
rfemur 17.7376 5.12273 24.2925
rtibia 33.1583
rfoot 0.804203 0.209522
rtoes -25.2903
lfemur -23.0139 -0.326648 -22.3073
ltibia 34.9689
lfoot -6.9852 12.269
ltoes -4.19949
153
root 9.81709 17.1329 -3.8695 -4.86794 -6.88858 -0.823667
lowerback 4.67357 1.27995 1.83733
upperback 1.80056 1.78678 0.263917
thorax -0.721638 0.897371 -0.851233
lowerneck -8.05132 6.68127 3.20515
upperneck 2.07998 8.68936 -2.40897
head 2.30863 4.2878 -0.914014
rclavicle 1.45206e-015 9.29318e-015
rhumerus -18.1407 12.4472 -85.91
rradius 51.4167
rwrist -16.9654
rhand -25.0779 19.164
rfingers 7.12502
rthumb 1.43629 -10.8109
lclavicle 1.45206e-015 9.29318e-015
lhumerus -47.538 27.7101 68.5843
lradius 15.9051
lwrist 5.30532
lhand -19.178 20.8437
lfingers 7.12502
lthumb 7.13331 50.7035
rfemur 16.2744 5.31566 24.0759
rtibia 36.1426
rfoot 3.92477 0.034159
rtoes -26.2165
lfemur -22.3562 -0.241393 -22.5554
ltibia 35.0946
lfoot -7.59518 12.1552
ltoes -5.3621
154
root 9.84051 17.1508 -3.68862 -4.8425 -6.91919 -0.592802
lowerback 4.68842 1.29232 1.72315
upperback 1.64335 1.79984 0.193848
thorax -0.892256 0.901343 -0.86276
lowerneck -7.9483 6.70706 3.49919
upperneck 2.46775 8.72408 -2.78135
head 2.45818 4.29744 -1.07675
rclavicle 3.01916e-014 1.80894e-014
rhumerus -18.9409 12.4193 -86.1188
rradius 50.7933
rwrist -17.1387
rhand -25.1052 18.9655
rfingers 7.12502
rthumb 1.41001 -11.0096
lclavicle 3.01916e-014 1.80894e-014
lhumerus -46.9254 27.0417 69.5358
lradius 16.515
lwrist 6.21283
lhand -19.32 20.8409
lfingers 7.12502
lthumb 6.99628 50.7052
rfemur 14.6818 5.63401 23.61
rtibia 39.1905
rfoot 7.14064 -0.0434277
rtoes -28.466
lfemur -21.6499 -0.250705 -23.0062
ltibia 35.0983
lfoot -8.18517 12.3235
ltoes -4.67723
